<?xml version="1.0" encoding="UTF-8"?>
<svg xmlns="http://www.w3.org/2000/svg" xmlns:xlink="http://www.w3.org/1999/xlink" width="375pt" height="374.999991pt" viewBox="0 0 375 374.999991" version="1.2">
<defs>
<g>
<symbol overflow="visible" id="glyph0-0">
<path style="stroke:none;" d="M 30.988281 1.359375 C 36.5625 1.359375 45.261719 -4.894531 48.523438 -11.28125 L 47.570312 -11.824219 C 45.261719 -7.203125 38.191406 -2.582031 33.433594 -2.582031 C 27.320312 -2.582031 21.339844 -8.835938 21.339844 -18.621094 L 21.609375 -69.589844 L 44.171875 -69.589844 L 44.171875 -73.9375 L 21.609375 -73.9375 L 21.609375 -91.742188 L 20.929688 -91.742188 L 4.484375 -72.171875 L 4.484375 -70.8125 L 13.320312 -70.8125 L 13.320312 -20.386719 C 13.320312 -7.203125 22.019531 1.359375 30.988281 1.359375 Z M 30.988281 1.359375 "/>
</symbol>
<symbol overflow="visible" id="glyph0-1">
<path style="stroke:none;" d="M 3.398438 29.902344 L 11.554688 29.902344 L 11.554688 -7.476562 C 16.855469 -2.71875 23.785156 0.679688 29.765625 0.679688 C 48.113281 0.679688 66.054688 -20.25 66.054688 -37.648438 C 66.054688 -56.675781 49.882812 -75.296875 33.300781 -75.296875 C 25.550781 -75.296875 15.496094 -70.132812 11.554688 -64.425781 L 11.554688 -73.9375 L 7.476562 -73.9375 L 1.359375 -72.308594 L 1.359375 -71.628906 L 1.765625 -71.628906 C 2.582031 -71.355469 3.398438 -68.230469 3.398438 -65.105469 Z M 30.308594 -1.359375 C 23.511719 -1.359375 14.269531 -9.921875 11.554688 -18.621094 L 11.554688 -61.296875 C 15.222656 -66.871094 23.511719 -71.898438 29.628906 -71.898438 C 43.492188 -71.898438 57.085938 -53.6875 57.085938 -35.066406 C 57.085938 -19.707031 43.765625 -1.359375 30.308594 -1.359375 Z M 30.308594 -1.359375 "/>
</symbol>
<symbol overflow="visible" id="glyph1-0">
<path style="stroke:none;" d="M 10.875 -89.570312 C 13.589844 -89.570312 16.175781 -92.152344 16.175781 -94.871094 C 16.175781 -97.585938 13.589844 -100.171875 10.875 -100.171875 C 8.15625 -100.171875 5.574219 -97.585938 5.574219 -94.871094 C 5.574219 -92.152344 8.15625 -89.570312 10.875 -89.570312 Z M 6.796875 0 L 14.949219 0 L 14.949219 -73.9375 L 10.875 -73.9375 L 4.757812 -72.308594 L 4.757812 -71.628906 L 5.164062 -71.628906 C 5.980469 -71.355469 6.796875 -68.230469 6.796875 -65.105469 Z M 6.796875 0 "/>
</symbol>
<symbol overflow="visible" id="glyph2-0">
<path style="stroke:none;" d="M 21.007812 -26.652344 L 21.007812 -27.976562 L 0.859375 -27.976562 L 0.859375 -26.652344 L 10.289062 -26.652344 L 10.289062 0 L 11.753906 0 L 11.753906 -26.652344 Z M 21.007812 -26.652344 "/>
</symbol>
<symbol overflow="visible" id="glyph2-1">
<path style="stroke:none;" d="M 4.144531 -27.976562 L 4.144531 0 L 5.644531 0 L 5.644531 -11.863281 L 12.328125 -11.863281 L 21.578125 0 L 23.472656 0 L 14.078125 -12.003906 C 19.757812 -12.648438 22.617188 -15.71875 22.617188 -20.007812 C 22.617188 -23.9375 20.078125 -27.976562 12.539062 -27.976562 Z M 5.644531 -13.21875 L 5.644531 -26.652344 L 12.433594 -26.652344 C 19.148438 -26.652344 21.152344 -23.1875 21.152344 -19.972656 C 21.152344 -16.757812 18.792969 -13.21875 12.183594 -13.21875 Z M 5.644531 -13.21875 "/>
</symbol>
<symbol overflow="visible" id="glyph2-2">
<path style="stroke:none;" d="M 26.582031 0 L 14.21875 -27.976562 L 12.613281 -27.976562 L 0.25 0 L 1.785156 0 L 5.289062 -7.96875 L 21.507812 -7.96875 L 24.972656 0 Z M 20.902344 -9.324219 L 5.894531 -9.324219 L 13.363281 -26.367188 Z M 20.902344 -9.324219 "/>
</symbol>
<symbol overflow="visible" id="glyph2-3">
<path style="stroke:none;" d="M 5.644531 0 L 5.644531 -27.976562 L 4.144531 -27.976562 L 4.144531 0 Z M 5.644531 0 "/>
</symbol>
<symbol overflow="visible" id="glyph2-4">
<path style="stroke:none;" d="M 24.796875 -27.976562 L 24.796875 -2.109375 L 5.929688 -27.976562 L 4.144531 -27.976562 L 4.144531 0 L 5.609375 0 L 5.609375 -26.011719 L 24.582031 0 L 26.261719 0 L 26.261719 -27.976562 Z M 24.796875 -27.976562 "/>
</symbol>
<symbol overflow="visible" id="glyph2-5">
<path style="stroke:none;" d="M 28.652344 -13.039062 L 14.292969 -13.039062 L 14.292969 -11.683594 L 27.1875 -11.683594 L 27.1875 -11.574219 C 27.1875 -5.109375 21.902344 -1.035156 15.863281 -1.035156 C 8.503906 -1.035156 3.609375 -6.789062 3.609375 -14.078125 C 3.609375 -21.042969 8.503906 -26.9375 15.863281 -26.9375 C 22.152344 -26.9375 25.617188 -22.617188 26.867188 -19.222656 L 28.152344 -19.828125 C 26.832031 -23.582031 22.792969 -28.296875 15.898438 -28.296875 C 7.644531 -28.296875 2.109375 -21.828125 2.109375 -13.96875 C 2.109375 -5.894531 7.679688 0.285156 15.792969 0.285156 C 23.507812 0.285156 28.652344 -4.964844 28.652344 -11.683594 Z M 28.652344 -13.039062 "/>
</symbol>
</g>
<clipPath id="clip1">
  <path d="M 300 139.042969 L 311 139.042969 L 311 152 L 300 152 Z M 300 139.042969 "/>
</clipPath>
<clipPath id="clip2">
  <path d="M 306 139.042969 L 317 139.042969 L 317 152 L 306 152 Z M 306 139.042969 "/>
</clipPath>
<clipPath id="clip3">
  <path d="M 257.507812 148.605469 L 359.367188 148.605469 L 359.367188 214.792969 L 257.507812 214.792969 Z M 257.507812 148.605469 "/>
</clipPath>
<clipPath id="clip4">
  <path d="M 285.414062 183 L 331.558594 183 L 331.558594 214.792969 L 285.414062 214.792969 Z M 285.414062 183 "/>
</clipPath>
</defs>
<g id="surface1">
<g style="fill:rgb(9.01947%,27.839661%,34.899902%);fill-opacity:1;">
  <use xlink:href="#glyph0-0" x="15.893602" y="224.661171"/>
</g>
<g style="fill:rgb(9.01947%,27.839661%,34.899902%);fill-opacity:1;">
  <use xlink:href="#glyph1-0" x="79.689748" y="224.661171"/>
</g>
<g style="fill:rgb(9.01947%,27.839661%,34.899902%);fill-opacity:1;">
  <use xlink:href="#glyph0-1" x="114.538647" y="224.661171"/>
</g>
<g style="fill:rgb(9.01947%,27.839661%,34.899902%);fill-opacity:1;">
  <use xlink:href="#glyph1-0" x="200.622806" y="224.661171"/>
</g>
<g clip-path="url(#clip1)" clip-rule="nonzero">
<path style=" stroke:none;fill-rule:nonzero;fill:rgb(9.01947%,27.839661%,34.899902%);fill-opacity:1;" d="M 303.195312 140.414062 C 302.980469 139.5625 302.117188 139.042969 301.265625 139.257812 C 300.414062 139.472656 299.898438 140.332031 300.109375 141.183594 C 300.113281 141.203125 301.699219 147.746094 307.554688 151.6875 C 308.28125 152.171875 309.269531 151.976562 309.753906 151.25 C 310.242188 150.523438 310.046875 149.535156 309.320312 149.050781 C 304.5 145.804688 303.199219 140.429688 303.195312 140.414062 "/>
</g>
<g clip-path="url(#clip2)" clip-rule="nonzero">
<path style=" stroke:none;fill-rule:nonzero;fill:rgb(9.01947%,27.839661%,34.899902%);fill-opacity:1;" d="M 316.765625 141.183594 C 316.980469 140.332031 316.460938 139.472656 315.609375 139.257812 C 314.757812 139.042969 313.894531 139.5625 313.683594 140.414062 C 313.679688 140.429688 312.375 145.804688 307.554688 149.050781 C 306.828125 149.535156 306.632812 150.523438 307.121094 151.25 C 307.605469 151.976562 308.59375 152.171875 309.320312 151.6875 C 315.175781 147.746094 316.761719 141.203125 316.765625 141.183594 "/>
</g>
<g clip-path="url(#clip3)" clip-rule="nonzero">
<path style=" stroke:none;fill-rule:nonzero;fill:rgb(9.01947%,27.839661%,34.899902%);fill-opacity:1;" d="M 270.402344 175.328125 C 268.894531 195.0625 264.121094 206.855469 261.769531 211.609375 L 355.105469 211.609375 C 352.753906 206.855469 347.980469 195.0625 346.472656 175.328125 C 341.648438 174.410156 324.113281 170.019531 308.4375 152.753906 C 292.761719 170.019531 275.226562 174.410156 270.402344 175.328125 Z M 257.832031 212.238281 C 258.605469 210.984375 265.609375 198.992188 267.320312 173.863281 L 268.90625 173.96875 L 267.320312 173.859375 C 267.375 173.046875 268.03125 172.417969 268.824219 172.378906 C 270.527344 172.136719 290.167969 168.984375 307.238281 149.328125 L 308.4375 150.367188 L 307.238281 149.324219 C 307.8125 148.660156 308.816406 148.589844 309.480469 149.167969 C 309.570312 149.242188 309.644531 149.324219 309.710938 149.414062 C 327.527344 169.871094 348.113281 172.386719 348.175781 172.394531 L 347.96875 173.96875 L 348.175781 172.390625 C 348.972656 172.496094 349.550781 173.167969 349.558594 173.949219 C 351.378906 200.414062 359.0625 212.273438 359.109375 212.347656 L 359.117188 212.34375 C 359.589844 213.085938 359.371094 214.070312 358.632812 214.542969 C 358.363281 214.714844 358.058594 214.792969 357.761719 214.792969 L 259.101562 214.792969 C 258.222656 214.792969 257.507812 214.078125 257.507812 213.199219 C 257.507812 212.835938 257.628906 212.503906 257.832031 212.238281 "/>
</g>
<g clip-path="url(#clip4)" clip-rule="nonzero">
<path style=" stroke:none;fill-rule:nonzero;fill:rgb(9.01947%,27.839661%,34.899902%);fill-opacity:1;" d="M 291.605469 211.609375 L 325.269531 211.609375 C 320.933594 207.824219 313.675781 200.296875 308.4375 188.730469 C 303.199219 200.296875 295.941406 207.824219 291.605469 211.609375 Z M 308.4375 214.792969 L 287.027344 214.792969 C 286.148438 214.792969 285.433594 214.078125 285.433594 213.199219 C 285.433594 212.605469 285.761719 212.085938 286.246094 211.8125 C 287.5 210.957031 299.964844 202.101562 306.957031 184.0625 L 308.4375 184.636719 L 306.953125 184.058594 C 307.273438 183.242188 308.195312 182.832031 309.011719 183.152344 C 309.488281 183.335938 309.824219 183.71875 309.960938 184.171875 C 317.304688 203.019531 330.609375 211.800781 330.730469 211.878906 L 330.734375 211.875 C 331.464844 212.363281 331.660156 213.351562 331.171875 214.082031 C 330.867188 214.542969 330.359375 214.792969 329.84375 214.792969 L 308.4375 214.792969 "/>
</g>
<g style="fill:rgb(9.01947%,27.839661%,34.899902%);fill-opacity:1;">
  <use xlink:href="#glyph2-0" x="147.708935" y="273.91449"/>
</g>
<g style="fill:rgb(9.01947%,27.839661%,34.899902%);fill-opacity:1;">
  <use xlink:href="#glyph2-1" x="173.145666" y="273.91449"/>
</g>
<g style="fill:rgb(9.01947%,27.839661%,34.899902%);fill-opacity:1;">
  <use xlink:href="#glyph2-2" x="201.690424" y="273.91449"/>
</g>
<g style="fill:rgb(9.01947%,27.839661%,34.899902%);fill-opacity:1;">
  <use xlink:href="#glyph2-3" x="232.092861" y="273.91449"/>
</g>
<g style="fill:rgb(9.01947%,27.839661%,34.899902%);fill-opacity:1;">
  <use xlink:href="#glyph2-4" x="245.454724" y="273.91449"/>
</g>
<g style="fill:rgb(9.01947%,27.839661%,34.899902%);fill-opacity:1;">
  <use xlink:href="#glyph2-3" x="279.429615" y="273.91449"/>
</g>
<g style="fill:rgb(9.01947%,27.839661%,34.899902%);fill-opacity:1;">
  <use xlink:href="#glyph2-4" x="292.791477" y="273.91449"/>
</g>
<g style="fill:rgb(9.01947%,27.839661%,34.899902%);fill-opacity:1;">
  <use xlink:href="#glyph2-5" x="326.766368" y="273.91449"/>
</g>
</g>
</svg>
