<?xml version="1.0" encoding="UTF-8"?>
<svg xmlns="http://www.w3.org/2000/svg" xmlns:xlink="http://www.w3.org/1999/xlink" width="375pt" height="374.999991pt" viewBox="0 0 375 374.999991" version="1.2">
<defs>
<g>
<symbol overflow="visible" id="glyph0-0">
<path style="stroke:none;" d="M 30.988281 1.359375 C 36.5625 1.359375 45.261719 -4.894531 48.523438 -11.28125 L 47.570312 -11.824219 C 45.261719 -7.203125 38.191406 -2.582031 33.433594 -2.582031 C 27.320312 -2.582031 21.339844 -8.835938 21.339844 -18.621094 L 21.609375 -69.589844 L 44.171875 -69.589844 L 44.171875 -73.9375 L 21.609375 -73.9375 L 21.609375 -91.742188 L 20.929688 -91.742188 L 4.484375 -72.171875 L 4.484375 -70.8125 L 13.320312 -70.8125 L 13.320312 -20.386719 C 13.320312 -7.203125 22.019531 1.359375 30.988281 1.359375 Z M 30.988281 1.359375 "/>
</symbol>
<symbol overflow="visible" id="glyph0-1">
<path style="stroke:none;" d="M 3.398438 29.902344 L 11.554688 29.902344 L 11.554688 -7.476562 C 16.855469 -2.71875 23.785156 0.679688 29.765625 0.679688 C 48.113281 0.679688 66.054688 -20.25 66.054688 -37.648438 C 66.054688 -56.675781 49.882812 -75.296875 33.300781 -75.296875 C 25.550781 -75.296875 15.496094 -70.132812 11.554688 -64.425781 L 11.554688 -73.9375 L 7.476562 -73.9375 L 1.359375 -72.308594 L 1.359375 -71.628906 L 1.765625 -71.628906 C 2.582031 -71.355469 3.398438 -68.230469 3.398438 -65.105469 Z M 30.308594 -1.359375 C 23.511719 -1.359375 14.269531 -9.921875 11.554688 -18.621094 L 11.554688 -61.296875 C 15.222656 -66.871094 23.511719 -71.898438 29.628906 -71.898438 C 43.492188 -71.898438 57.085938 -53.6875 57.085938 -35.066406 C 57.085938 -19.707031 43.765625 -1.359375 30.308594 -1.359375 Z M 30.308594 -1.359375 "/>
</symbol>
<symbol overflow="visible" id="glyph1-0">
<path style="stroke:none;" d="M 10.875 -89.570312 C 13.589844 -89.570312 16.175781 -92.152344 16.175781 -94.871094 C 16.175781 -97.585938 13.589844 -100.171875 10.875 -100.171875 C 8.15625 -100.171875 5.574219 -97.585938 5.574219 -94.871094 C 5.574219 -92.152344 8.15625 -89.570312 10.875 -89.570312 Z M 6.796875 0 L 14.949219 0 L 14.949219 -73.9375 L 10.875 -73.9375 L 4.757812 -72.308594 L 4.757812 -71.628906 L 5.164062 -71.628906 C 5.980469 -71.355469 6.796875 -68.230469 6.796875 -65.105469 Z M 6.796875 0 "/>
</symbol>
<symbol overflow="visible" id="glyph2-0">
<path style="stroke:none;" d="M 21.007812 -26.652344 L 21.007812 -27.976562 L 0.859375 -27.976562 L 0.859375 -26.652344 L 10.289062 -26.652344 L 10.289062 0 L 11.753906 0 L 11.753906 -26.652344 Z M 21.007812 -26.652344 "/>
</symbol>
<symbol overflow="visible" id="glyph2-1">
<path style="stroke:none;" d="M 4.144531 -27.976562 L 4.144531 0 L 5.644531 0 L 5.644531 -11.863281 L 12.328125 -11.863281 L 21.578125 0 L 23.472656 0 L 14.078125 -12.003906 C 19.757812 -12.648438 22.617188 -15.71875 22.617188 -20.007812 C 22.617188 -23.9375 20.078125 -27.976562 12.539062 -27.976562 Z M 5.644531 -13.21875 L 5.644531 -26.652344 L 12.433594 -26.652344 C 19.148438 -26.652344 21.152344 -23.1875 21.152344 -19.972656 C 21.152344 -16.757812 18.792969 -13.21875 12.183594 -13.21875 Z M 5.644531 -13.21875 "/>
</symbol>
<symbol overflow="visible" id="glyph2-2">
<path style="stroke:none;" d="M 26.582031 0 L 14.21875 -27.976562 L 12.613281 -27.976562 L 0.25 0 L 1.785156 0 L 5.289062 -7.96875 L 21.507812 -7.96875 L 24.972656 0 Z M 20.902344 -9.324219 L 5.894531 -9.324219 L 13.363281 -26.367188 Z M 20.902344 -9.324219 "/>
</symbol>
<symbol overflow="visible" id="glyph2-3">
<path style="stroke:none;" d="M 5.644531 0 L 5.644531 -27.976562 L 4.144531 -27.976562 L 4.144531 0 Z M 5.644531 0 "/>
</symbol>
<symbol overflow="visible" id="glyph2-4">
<path style="stroke:none;" d="M 24.796875 -27.976562 L 24.796875 -2.109375 L 5.929688 -27.976562 L 4.144531 -27.976562 L 4.144531 0 L 5.609375 0 L 5.609375 -26.011719 L 24.582031 0 L 26.261719 0 L 26.261719 -27.976562 Z M 24.796875 -27.976562 "/>
</symbol>
<symbol overflow="visible" id="glyph2-5">
<path style="stroke:none;" d="M 28.652344 -13.039062 L 14.292969 -13.039062 L 14.292969 -11.683594 L 27.1875 -11.683594 L 27.1875 -11.574219 C 27.1875 -5.109375 21.902344 -1.035156 15.863281 -1.035156 C 8.503906 -1.035156 3.609375 -6.789062 3.609375 -14.078125 C 3.609375 -21.042969 8.503906 -26.9375 15.863281 -26.9375 C 22.152344 -26.9375 25.617188 -22.617188 26.867188 -19.222656 L 28.152344 -19.828125 C 26.832031 -23.582031 22.792969 -28.296875 15.898438 -28.296875 C 7.644531 -28.296875 2.109375 -21.828125 2.109375 -13.96875 C 2.109375 -5.894531 7.679688 0.285156 15.792969 0.285156 C 23.507812 0.285156 28.652344 -4.964844 28.652344 -11.683594 Z M 28.652344 -13.039062 "/>
</symbol>
</g>
<clipPath id="clip1">
  <path d="M 300 131.167969 L 311 131.167969 L 311 145 L 300 145 Z M 300 131.167969 "/>
</clipPath>
<clipPath id="clip2">
  <path d="M 306 131.167969 L 317 131.167969 L 317 145 L 306 145 Z M 306 131.167969 "/>
</clipPath>
<clipPath id="clip3">
  <path d="M 257.507812 140.730469 L 359.367188 140.730469 L 359.367188 206.917969 L 257.507812 206.917969 Z M 257.507812 140.730469 "/>
</clipPath>
<clipPath id="clip4">
  <path d="M 285.414062 175 L 331.558594 175 L 331.558594 206.917969 L 285.414062 206.917969 Z M 285.414062 175 "/>
</clipPath>
</defs>
<g id="surface1">
<g style="fill:rgb(100%,100%,100%);fill-opacity:1;">
  <use xlink:href="#glyph0-0" x="15.893602" y="216.786172"/>
</g>
<g style="fill:rgb(100%,100%,100%);fill-opacity:1;">
  <use xlink:href="#glyph1-0" x="79.689748" y="216.786172"/>
</g>
<g style="fill:rgb(100%,100%,100%);fill-opacity:1;">
  <use xlink:href="#glyph0-1" x="114.538647" y="216.786172"/>
</g>
<g style="fill:rgb(100%,100%,100%);fill-opacity:1;">
  <use xlink:href="#glyph1-0" x="200.622806" y="216.786172"/>
</g>
<g clip-path="url(#clip1)" clip-rule="nonzero">
<path style=" stroke:none;fill-rule:nonzero;fill:rgb(100%,100%,100%);fill-opacity:1;" d="M 303.195312 132.539062 C 302.980469 131.6875 302.117188 131.167969 301.265625 131.382812 C 300.414062 131.597656 299.898438 132.457031 300.109375 133.308594 C 300.113281 133.328125 301.699219 139.871094 307.554688 143.8125 C 308.28125 144.296875 309.269531 144.101562 309.753906 143.375 C 310.242188 142.648438 310.046875 141.660156 309.320312 141.175781 C 304.5 137.929688 303.199219 132.554688 303.195312 132.539062 "/>
</g>
<g clip-path="url(#clip2)" clip-rule="nonzero">
<path style=" stroke:none;fill-rule:nonzero;fill:rgb(100%,100%,100%);fill-opacity:1;" d="M 316.765625 133.308594 C 316.980469 132.457031 316.460938 131.597656 315.609375 131.382812 C 314.757812 131.167969 313.894531 131.6875 313.683594 132.539062 C 313.679688 132.554688 312.375 137.929688 307.554688 141.175781 C 306.828125 141.660156 306.632812 142.648438 307.121094 143.375 C 307.605469 144.101562 308.59375 144.296875 309.320312 143.8125 C 315.175781 139.871094 316.761719 133.328125 316.765625 133.308594 "/>
</g>
<g clip-path="url(#clip3)" clip-rule="nonzero">
<path style=" stroke:none;fill-rule:nonzero;fill:rgb(100%,100%,100%);fill-opacity:1;" d="M 270.402344 167.453125 C 268.894531 187.1875 264.121094 198.980469 261.769531 203.734375 L 355.105469 203.734375 C 352.753906 198.980469 347.980469 187.1875 346.472656 167.453125 C 341.648438 166.535156 324.113281 162.144531 308.4375 144.878906 C 292.761719 162.144531 275.226562 166.535156 270.402344 167.453125 Z M 257.832031 204.363281 C 258.605469 203.109375 265.609375 191.117188 267.320312 165.988281 L 268.90625 166.09375 L 267.320312 165.984375 C 267.375 165.171875 268.03125 164.542969 268.824219 164.503906 C 270.527344 164.261719 290.167969 161.109375 307.238281 141.453125 L 308.4375 142.492188 L 307.238281 141.449219 C 307.8125 140.785156 308.816406 140.714844 309.480469 141.292969 C 309.570312 141.367188 309.644531 141.449219 309.710938 141.539062 C 327.527344 161.996094 348.113281 164.511719 348.175781 164.519531 L 347.96875 166.09375 L 348.175781 164.515625 C 348.972656 164.621094 349.550781 165.292969 349.558594 166.074219 C 351.378906 192.539062 359.0625 204.398438 359.109375 204.472656 L 359.117188 204.46875 C 359.589844 205.210938 359.371094 206.195312 358.632812 206.667969 C 358.363281 206.839844 358.058594 206.917969 357.761719 206.917969 L 259.101562 206.917969 C 258.222656 206.917969 257.507812 206.203125 257.507812 205.324219 C 257.507812 204.960938 257.628906 204.628906 257.832031 204.363281 "/>
</g>
<g clip-path="url(#clip4)" clip-rule="nonzero">
<path style=" stroke:none;fill-rule:nonzero;fill:rgb(100%,100%,100%);fill-opacity:1;" d="M 291.605469 203.734375 L 325.269531 203.734375 C 320.933594 199.949219 313.675781 192.421875 308.4375 180.855469 C 303.199219 192.421875 295.941406 199.949219 291.605469 203.734375 Z M 308.4375 206.917969 L 287.027344 206.917969 C 286.148438 206.917969 285.433594 206.203125 285.433594 205.324219 C 285.433594 204.730469 285.761719 204.210938 286.246094 203.9375 C 287.5 203.082031 299.964844 194.226562 306.957031 176.1875 L 308.4375 176.761719 L 306.953125 176.183594 C 307.273438 175.367188 308.195312 174.957031 309.011719 175.277344 C 309.488281 175.460938 309.824219 175.84375 309.960938 176.296875 C 317.304688 195.144531 330.609375 203.925781 330.730469 204.003906 L 330.734375 204 C 331.464844 204.488281 331.660156 205.476562 331.171875 206.207031 C 330.867188 206.667969 330.359375 206.917969 329.84375 206.917969 L 308.4375 206.917969 "/>
</g>
<g style="fill:rgb(100%,100%,100%);fill-opacity:1;">
  <use xlink:href="#glyph2-0" x="147.708935" y="266.039476"/>
</g>
<g style="fill:rgb(100%,100%,100%);fill-opacity:1;">
  <use xlink:href="#glyph2-1" x="173.145666" y="266.039476"/>
</g>
<g style="fill:rgb(100%,100%,100%);fill-opacity:1;">
  <use xlink:href="#glyph2-2" x="201.690424" y="266.039476"/>
</g>
<g style="fill:rgb(100%,100%,100%);fill-opacity:1;">
  <use xlink:href="#glyph2-3" x="232.092861" y="266.039476"/>
</g>
<g style="fill:rgb(100%,100%,100%);fill-opacity:1;">
  <use xlink:href="#glyph2-4" x="245.454724" y="266.039476"/>
</g>
<g style="fill:rgb(100%,100%,100%);fill-opacity:1;">
  <use xlink:href="#glyph2-3" x="279.429615" y="266.039476"/>
</g>
<g style="fill:rgb(100%,100%,100%);fill-opacity:1;">
  <use xlink:href="#glyph2-4" x="292.791477" y="266.039476"/>
</g>
<g style="fill:rgb(100%,100%,100%);fill-opacity:1;">
  <use xlink:href="#glyph2-5" x="326.766368" y="266.039476"/>
</g>
</g>
</svg>
